<?xml version="1.0" standalone="no"?>
<!DOCTYPE svg PUBLIC "-//W3C//DTD SVG 20010904//EN"
 "http://www.w3.org/TR/2001/REC-SVG-20010904/DTD/svg10.dtd">
<svg version="1.0" xmlns="http://www.w3.org/2000/svg"
 width="1000.000000pt" height="1000.000000pt" viewBox="0 0 1000.000000 1000.000000"
 preserveAspectRatio="xMidYMid meet">
<metadata>
Created by potrace 1.15, written by Peter Selinger 2001-2017
</metadata>
<g transform="translate(0.000000,1000.000000) scale(0.100000,-0.100000)"
fill="#000000" stroke="none">
<path d="M4939 8892 c-1 -4 -1 -10 -1 -14 1 -3 -95 -8 -213 -10 -190 -3 -239
-8 -224 -22 2 -3 38 0 79 5 74 10 836 4 911 -7 21 -3 39 -2 42 3 3 5 -8 10
-26 11 -54 4 -45 14 10 11 60 -3 82 7 32 15 -53 8 -609 16 -610 8z"/>
<path d="M5650 8861 c0 -6 -10 -9 -22 -9 -43 3 -78 -2 -78 -10 0 -4 24 -20 53
-35 57 -29 72 -38 132 -77 62 -41 119 -67 133 -62 14 4 54 -27 47 -37 -2 -4
33 -29 78 -56 45 -26 102 -60 127 -75 101 -61 206 -114 267 -135 78 -28 98
-43 65 -51 -12 -4 -22 -9 -22 -11 0 -11 43 -43 85 -63 55 -27 89 -60 116 -118
13 -25 25 -40 27 -34 2 7 -8 35 -22 62 -14 27 -26 57 -26 67 0 26 57 -44 71
-87 6 -20 38 -65 71 -100 121 -131 413 -519 681 -907 80 -116 124 -169 133
-161 3 4 -14 32 -38 64 -23 31 -50 67 -58 79 -27 41 -209 307 -315 460 -97
140 -204 297 -299 440 -22 33 -31 53 -21 45 17 -14 18 -13 11 13 -6 25 -4 28
13 22 11 -3 22 -1 26 5 3 5 1 10 -5 10 -6 0 -8 5 -5 11 5 7 15 5 30 -5 13 -9
34 -16 47 -16 59 -1 86 -6 102 -22 27 -27 35 -21 23 15 -17 45 -30 53 -132 78
-136 33 -209 57 -242 82 -74 56 -156 135 -174 169 -25 49 -114 167 -147 196
-15 13 -42 30 -59 38 -33 14 -48 42 -17 30 14 -6 15 -4 4 9 -9 11 -15 12 -20
5 -5 -7 -11 -6 -19 4 -7 8 -10 19 -7 24 6 10 -12 29 -26 31 -5 1 -8 4 -7 7 1
8 -23 24 -36 24 -5 0 -3 -5 5 -10 19 -13 -21 -5 -100 20 -30 9 -75 17 -99 18
-24 1 -58 7 -75 15 -45 21 -130 32 -121 16 6 -9 1 -10 -19 -5 -15 4 -26 2 -26
-4 0 -10 7 -12 45 -15 106 -7 338 -51 379 -72 38 -19 71 -56 96 -108 24 -49
42 -78 54 -86 5 -4 5 -12 2 -18 -4 -6 5 -23 19 -37 60 -60 -2 -23 -124 74 -19
15 -42 31 -51 37 -59 35 -82 46 -87 41 -3 -3 6 -11 20 -17 36 -16 24 -30 -15
-19 -17 5 -34 8 -38 5 -4 -2 -45 16 -92 40 -47 24 -89 41 -93 37 -5 -4 -5 -2
-2 4 4 6 -31 30 -86 58 -51 27 -99 54 -107 62 -12 12 -9 14 25 14 30 0 36 3
25 10 -8 5 -26 10 -40 11 -23 0 -23 1 -5 9 18 8 17 9 -7 9 -16 1 -28 -3 -28
-8z"/>
<path d="M3685 8620 c-3 -5 -12 -7 -20 -3 -9 3 -15 -1 -15 -8 0 -7 -15 -26
-32 -41 -24 -20 -28 -28 -16 -28 9 0 19 -4 22 -8 7 -11 -33 -92 -46 -92 -13 0
2 43 18 53 25 14 15 27 -11 15 -14 -6 -25 -17 -25 -25 0 -25 -180 -173 -211
-173 -24 0 -98 -51 -99 -67 0 -18 -17 -16 -23 1 -3 8 -1 17 6 19 7 2 9 7 6 11
-11 12 -183 -68 -187 -87 -2 -12 3 -17 17 -17 22 0 28 -14 11 -25 -16 -10 -12
-45 5 -45 8 0 15 -5 15 -11 0 -5 4 -8 9 -5 5 4 12 0 14 -6 4 -10 6 -9 6 1 1
19 31 -6 31 -27 0 -13 2 -13 18 1 40 37 30 13 -22 -50 -31 -38 -81 -104 -111
-148 -31 -44 -75 -106 -98 -137 -82 -112 -333 -461 -395 -551 -95 -137 -98
-137 -45 3 13 36 34 90 45 120 11 30 33 84 49 120 47 109 100 240 135 340 64
181 87 232 124 265 12 11 29 32 36 48 8 15 19 25 24 22 5 -3 15 3 22 15 7 11
32 34 55 52 62 46 56 79 -7 41 -34 -20 -146 -140 -175 -187 -68 -111 -88 -148
-112 -211 -83 -219 -116 -301 -123 -305 -14 -10 -110 -272 -103 -283 3 -7 3
-9 -2 -5 -9 8 -54 -98 -80 -185 -9 -30 -30 -76 -48 -102 -17 -27 -38 -58 -44
-69 -9 -15 -13 -17 -13 -5 0 8 5 20 12 27 9 9 9 15 -1 25 -10 10 -11 9 -6 -5
5 -11 2 -20 -8 -24 -28 -10 -60 -104 -65 -189 l-4 -80 120 -240 c65 -132 142
-280 169 -330 101 -182 208 -376 251 -455 19 -36 58 -108 87 -160 29 -52 66
-120 82 -150 17 -30 83 -152 148 -270 65 -118 132 -240 148 -270 83 -157 125
-234 175 -325 30 -55 97 -179 149 -275 53 -96 109 -200 125 -230 17 -30 64
-118 105 -195 118 -218 181 -331 250 -448 50 -83 65 -118 67 -150 0 -27 5 -41
13 -40 20 4 26 -63 20 -226 -6 -146 4 -286 21 -302 4 -4 51 -14 105 -21 l98
-14 -5 22 c-25 99 -41 604 -19 611 5 2 8 -68 7 -164 -2 -131 0 -151 6 -93 4
41 9 120 11 175 3 93 1 100 -17 101 -10 1 -23 3 -29 4 -14 3 -37 6 -58 8 -9 1
-23 13 -29 27 -6 14 -16 25 -22 25 -6 0 -5 -5 2 -12 14 -14 16 -28 3 -28 -5 0
-14 14 -21 30 -7 17 -42 79 -77 138 -35 59 -107 193 -160 297 -52 105 -121
240 -153 300 -32 61 -110 214 -175 340 -65 127 -137 266 -160 310 -23 44 -89
170 -145 280 -56 110 -124 242 -151 293 -27 50 -71 134 -98 185 -160 304 -348
676 -464 920 -52 107 -70 137 -84 135 -20 -4 -73 93 -99 182 -33 112 -10 258
56 355 15 22 37 58 48 81 11 22 50 80 87 130 37 49 82 112 100 139 36 56 108
147 188 239 77 86 180 214 270 333 104 137 108 140 81 41 -18 -62 -12 -87 12
-53 8 11 48 67 89 124 41 57 75 109 75 116 0 7 7 18 15 25 8 7 15 17 15 23 0
5 -9 2 -20 -8 -17 -15 -20 -16 -15 -3 6 16 56 58 130 112 22 16 42 32 45 36 3
4 16 12 30 19 l25 12 -25 -22 c-14 -12 -36 -30 -49 -40 -38 -31 -15 -35 27 -5
53 36 88 75 99 111 6 18 24 38 44 50 20 11 48 31 65 43 21 18 13 15 -31 -9
-33 -18 -73 -39 -90 -47 -57 -29 -160 -107 -222 -170 -35 -35 -63 -60 -63 -57
0 3 11 22 24 43 27 44 85 98 141 132 22 13 45 29 52 36 6 6 50 30 97 53 93 47
151 94 121 99 -9 2 -48 -15 -87 -37 -39 -23 -76 -41 -83 -41 -7 0 -23 -9 -36
-21 l-24 -20 24 7 c16 4 21 3 17 -5 -4 -6 -17 -11 -30 -11 -13 0 -38 -5 -57
-12 -43 -14 -149 -99 -144 -115 5 -14 -25 -27 -36 -16 -11 11 163 161 217 187
49 24 115 114 107 145 -3 10 0 22 6 25 6 4 11 11 11 17 0 12 -27 12 -35 -1z
m-1408 -1862 c-2 -18 2 -54 10 -80 13 -44 30 -78 115 -223 19 -33 70 -127 113
-210 42 -82 81 -156 86 -165 5 -8 42 -85 83 -170 61 -130 292 -599 436 -890
53 -108 215 -422 265 -515 80 -149 115 -219 115 -232 0 -7 4 -13 9 -13 9 0 23
-41 17 -48 -2 -1 -43 75 -91 170 -48 95 -91 178 -95 183 -4 6 -34 60 -65 120
-81 155 -101 189 -151 267 -25 38 -81 135 -126 216 -89 163 -99 181 -186 332
-251 440 -477 869 -531 1011 -24 63 -29 87 -26 150 3 73 12 129 22 129 3 0 3
-15 0 -32z m1641 -3170 c7 -13 16 -30 22 -38 41 -61 100 -167 100 -178 0 -8 8
-26 19 -40 24 -35 91 -176 85 -181 -11 -11 -51 21 -68 55 -11 22 -39 71 -63
110 -26 43 -45 87 -47 110 -2 22 -20 72 -40 112 -20 40 -32 72 -28 72 5 0 14
-10 20 -22z m351 -565 c16 -70 10 -484 -6 -467 -7 7 -18 14 -25 17 -10 3 -13
49 -11 198 2 207 9 299 23 299 4 0 13 -21 19 -47z"/>
<path d="M3742 8360 c2 -8 20 -18 39 -22 62 -16 65 -18 49 -28 -20 -13 -43
-13 -35 0 13 21 -19 8 -78 -32 -63 -43 -63 -62 1 -35 33 15 152 51 206 64 12
2 87 5 169 5 81 0 147 4 147 9 0 5 -7 9 -16 9 -9 0 -14 6 -11 14 4 10 -9 12
-66 10 -40 -2 -93 -9 -120 -15 -26 -6 -69 -8 -95 -5 -26 3 -74 8 -107 12 -33
4 -66 12 -74 18 -11 8 -13 8 -9 -4z"/>
<path d="M7615 6909 c-5 -7 -4 -14 2 -16 5 -2 8 -15 5 -30 -3 -18 -1 -24 7
-19 6 4 11 1 11 -9 0 -9 9 -28 19 -43 11 -15 27 -61 37 -103 l17 -76 -31 -59
c-17 -32 -36 -74 -43 -92 -9 -24 -14 -30 -20 -20 -7 10 -9 10 -9 0 0 -7 -16
-35 -35 -62 -19 -27 -35 -52 -35 -54 0 -7 -58 -95 -101 -151 -20 -27 -55 -81
-77 -120 -115 -204 -424 -774 -549 -1013 -36 -70 -69 -131 -73 -137 -4 -5 -49
-89 -100 -185 -51 -96 -109 -204 -128 -240 -20 -36 -63 -117 -97 -180 -156
-290 -306 -561 -419 -755 -22 -38 -52 -91 -66 -117 -14 -26 -35 -65 -48 -88
-12 -23 -18 -39 -13 -35 14 8 120 139 163 201 45 63 128 210 128 224 0 19 -22
-9 -98 -124 -40 -60 -72 -107 -72 -104 0 13 114 205 135 228 25 28 107 149
150 223 45 79 21 64 -30 -17 -54 -87 -71 -101 -27 -23 16 28 48 86 69 127 53
99 149 275 204 375 25 44 54 101 67 127 12 25 26 49 32 53 6 4 0 -16 -14 -44
-14 -28 -26 -56 -26 -63 1 -7 12 8 25 33 13 25 31 51 39 58 9 8 16 18 16 23 0
5 56 108 125 229 69 121 125 223 125 225 0 2 51 95 113 207 105 187 143 258
204 377 172 334 398 738 468 835 12 17 33 50 46 75 13 25 30 51 37 58 14 15
16 44 3 58 -4 5 -15 32 -24 59 -18 57 -56 145 -62 145 -3 0 -2 -15 1 -32 4
-25 3 -29 -5 -18 -6 8 -11 24 -11 35 0 11 -7 31 -14 44 -10 18 -15 20 -21 10z"/>
<path d="M4071 3738 c16 -61 117 -343 142 -399 14 -31 38 -70 54 -87 l29 -32
16 28 c17 28 16 30 -33 133 -144 298 -193 389 -208 389 -6 0 -6 -13 0 -32z"/>
<path d="M5759 3114 c-8 -10 -14 -52 -16 -117 -2 -70 0 -97 6 -87 16 23 12
-174 -4 -244 -8 -33 -28 -81 -44 -108 -17 -27 -31 -51 -31 -53 0 -8 65 8 78
18 48 38 69 155 71 396 2 166 1 177 -19 194 -25 21 -24 21 -41 1z"/>
<path d="M4723 3060 c-6 -23 -33 -27 -33 -5 0 27 -17 16 -33 -22 -12 -31 -15
-84 -15 -270 -1 -224 0 -233 19 -233 18 0 19 9 19 214 0 303 23 296 33 -9 2
-60 0 -99 -4 -85 -5 17 -7 6 -8 -37 -1 -52 2 -63 15 -63 10 0 14 -6 11 -14 -3
-8 -2 -16 3 -18 5 -2 12 -16 15 -31 7 -25 5 -28 -16 -26 -42 4 -205 -4 -181
-8 31 -6 17 -23 -21 -25 -27 -1 174 -18 240 -19 14 -1 20 -6 16 -13 -3 -6 -1
-6 8 2 7 6 20 12 29 11 10 0 11 -2 3 -6 -13 -5 -19 -83 -7 -83 15 0 35 33 36
60 1 18 6 29 12 27 6 -2 10 -15 9 -28 l-3 -24 12 23 c6 12 15 22 20 22 5 0 8
-10 7 -22 -3 -39 1 -68 9 -68 5 0 7 13 4 30 -2 16 -1 38 2 47 6 15 8 15 17 3
8 -13 10 -13 19 0 6 10 10 11 10 3 0 -7 7 -13 15 -13 8 0 15 5 15 10 0 6 14
10 30 10 17 0 30 5 30 12 0 6 9 3 20 -7 18 -17 20 -17 14 -2 -4 11 -1 17 9 17
8 0 17 -5 19 -11 3 -9 9 -9 26 0 12 6 63 14 114 17 116 6 141 11 135 27 -3 9
-83 13 -317 15 -173 1 -315 4 -316 5 -1 1 -8 107 -14 234 -11 213 -11 235 4
258 13 20 15 37 10 70 -7 48 -31 62 -41 25z"/>
<path d="M5161 2930 c-1 -83 -4 -157 -8 -165 -3 -9 0 -22 7 -30 9 -10 10 -31
6 -65 -4 -32 -3 -50 4 -50 5 0 10 -9 10 -21 0 -11 4 -18 9 -14 5 3 12 1 16 -5
3 -5 10 -10 14 -10 11 0 21 148 13 190 -4 18 -5 63 -1 100 8 72 6 82 -18 73
-13 -5 -14 -18 -9 -81 7 -69 6 -73 -10 -58 -13 14 -16 37 -15 127 0 61 3 114
6 119 6 10 -4 40 -14 40 -5 0 -9 -68 -10 -150z"/>
<path d="M4850 3037 c0 -7 9 -52 19 -100 10 -48 15 -84 10 -81 -5 3 -8 -39 -8
-98 1 -69 4 -93 9 -73 6 25 8 20 9 -27 2 -123 31 -30 31 102 0 48 -11 154 -26
258 -4 23 -10 32 -24 32 -11 0 -20 -6 -20 -13z"/>
<path d="M5696 2453 c-16 -4 -17 -11 -11 -46 4 -23 9 -64 11 -91 1 -27 6 -66
9 -87 6 -36 5 -39 -27 -53 -18 -8 -53 -19 -78 -24 -44 -10 -44 -10 15 -5 81 6
141 22 158 42 10 12 12 46 9 144 l-4 127 -32 -1 c-17 -1 -39 -3 -50 -6z"/>
<path d="M4153 2434 c10 -32 26 -145 31 -221 5 -70 4 -73 -19 -79 -29 -7 -38
-27 -21 -49 11 -16 25 -17 137 -9 l124 8 -75 8 c-41 4 -85 12 -97 18 -13 5
-31 6 -40 3 -16 -6 -16 -5 -4 10 7 9 22 17 33 17 10 0 17 4 14 8 -3 5 18 14
46 21 76 17 84 27 49 62 -16 16 -37 29 -45 29 -9 0 -16 4 -16 9 0 5 -11 12
-25 15 -24 6 -36 40 -17 48 5 2 12 27 15 56 6 51 6 52 -21 52 -15 0 -38 3 -51
7 -19 5 -22 3 -18 -13z"/>
<path d="M4975 2109 c-300 -9 -464 -19 -471 -30 -3 -5 34 -9 83 -10 48 -1 99
-4 111 -8 21 -5 17 -8 -25 -21 -36 -11 -100 -15 -262 -15 l-213 0 4 -56 c4
-56 4 -56 -30 -69 -28 -10 -33 -16 -30 -38 l3 -27 104 -3 c63 -2 108 1 115 8
10 10 -8 14 -46 11 -28 -3 -99 19 -93 29 7 12 65 40 81 40 7 0 16 4 19 10 3 6
-1 7 -9 4 -9 -3 -16 -1 -16 5 0 6 4 11 8 11 5 0 21 11 37 24 24 21 40 24 155
31 136 7 212 1 246 -20 32 -21 212 -8 359 25 28 7 64 13 80 15 17 2 62 9 100
15 39 6 131 15 205 20 118 8 136 7 152 -7 17 -15 17 -18 2 -34 -17 -19 -15
-21 39 -38 43 -14 41 -23 -11 -51 l-37 -20 40 6 c51 8 106 34 119 57 9 15 6
22 -17 41 -20 16 -30 35 -34 66 -7 48 4 47 -138 16 -90 -20 -502 -43 -516 -29
-7 7 36 14 127 23 75 7 149 16 163 20 30 10 -57 9 -404 -1z"/>
<path d="M5310 1880 c-58 -4 -181 -8 -275 -9 -166 -1 -435 -16 -505 -28 -28
-5 -16 -8 54 -15 87 -8 105 -12 94 -24 -13 -12 -221 -26 -345 -22 l-133 4 0
-51 c0 -44 -3 -53 -32 -77 -26 -21 -31 -30 -23 -44 9 -14 32 -17 140 -20 271
-8 420 -17 400 -25 -11 -4 -34 -8 -52 -8 -17 -1 -33 -7 -35 -13 -4 -10 -52
-13 -196 -13 l-192 0 0 -23 c0 -13 -5 -33 -11 -44 -16 -29 -2 -38 87 -54 108
-19 145 -16 60 4 -72 18 -92 37 -60 55 22 13 23 13 172 28 91 10 128 9 190 -2
101 -18 293 -16 412 4 409 69 530 82 530 57 0 -5 14 -10 30 -10 17 0 30 -4 30
-10 0 -5 -7 -10 -15 -10 -9 0 -12 -6 -9 -15 4 -9 20 -15 43 -15 l36 -1 -30
-24 c-16 -13 -45 -29 -65 -34 -34 -10 -34 -11 10 -5 74 8 149 36 165 61 14 21
13 26 -12 72 -16 28 -35 52 -43 53 -8 2 -44 -4 -80 -13 -36 -9 -98 -20 -138
-24 -78 -7 -212 2 -212 15 0 4 28 13 63 20 34 6 73 16 87 21 l25 9 -25 -5
c-14 -3 -146 -8 -295 -11 -148 -2 -353 -12 -455 -21 -242 -20 -434 -11 -468
24 -15 14 -13 15 38 27 35 8 59 26 43 33 -7 2 8 16 35 30 44 24 56 26 192 26
116 1 156 -3 199 -18 50 -17 63 -17 160 -6 58 7 138 19 176 27 227 48 513 74
563 51 24 -11 30 -37 8 -37 -9 0 -12 -7 -9 -19 4 -14 15 -21 42 -23 48 -4 43
-19 -16 -41 l-48 -18 45 7 c25 4 65 14 90 23 53 19 65 51 31 82 -11 11 -23 32
-27 47 -11 51 -10 50 -56 41 -164 -32 -225 -39 -324 -37 l-109 3 55 16 c30 10
75 21 100 27 52 11 35 11 -110 2z"/>
<path d="M5330 1409 c-63 -5 -216 -8 -340 -8 -124 0 -263 -4 -310 -9 -83 -8
-81 -8 102 -16 247 -11 624 7 713 33 29 9 29 9 -10 9 -22 -1 -92 -5 -155 -9z"/>
<path d="M4841 1313 c-31 -4 -33 -7 -28 -33 5 -21 2 -30 -11 -35 -38 -14 25
-29 145 -33 178 -6 304 11 266 36 -7 4 -10 19 -8 34 4 22 1 26 -26 32 -33 6
-281 6 -338 -1z"/>
<path d="M4460 1193 c0 -2 40 -56 89 -121 100 -133 97 -132 234 -132 51 0 69
-4 73 -15 4 -8 10 -15 16 -15 5 0 6 5 3 10 -3 6 1 10 9 10 10 0 13 -6 9 -16
-5 -13 7 -15 103 -9 60 4 111 8 113 11 2 2 -31 4 -74 4 -43 0 -76 2 -73 5 2 3
71 9 152 14 93 6 154 14 166 23 21 14 182 230 176 235 -2 2 -68 -1 -147 -6
-156 -12 -582 -13 -747 -2 -56 3 -102 5 -102 4z"/>
</g>
</svg>
